<svg width="20" height="20" viewBox="0 0 20 20" fill="none" xmlns="http://www.w3.org/2000/svg">
<path fill-rule="evenodd" clip-rule="evenodd" d="M1.66668 2.50098C2.12691 2.50098 2.50001 2.87407 2.50001 3.33431V15.001C2.50001 15.4612 2.87311 15.8343 3.33334 15.8343H18.3333C18.7936 15.8343 19.1667 16.2074 19.1667 16.6676C19.1667 17.1279 18.7936 17.501 18.3333 17.501H3.33334C1.95263 17.501 0.833344 16.3817 0.833344 15.001V3.33431C0.833344 2.87407 1.20644 2.50098 1.66668 2.50098Z" fill="#23262F"/>
<path d="M15 4.16772C14.5398 4.16772 14.1667 4.54082 14.1667 5.00106V13.3344C14.1667 13.7946 14.5398 14.1677 15 14.1677C15.4602 14.1677 15.8333 13.7946 15.8333 13.3344V5.00106C15.8333 4.54082 15.4602 4.16772 15 4.16772Z" fill="#23262F"/>
<path d="M8.33332 5.83439C7.87309 5.83439 7.49999 6.20749 7.49999 6.66772V13.3344C7.49999 13.7946 7.87309 14.1677 8.33332 14.1677C8.79356 14.1677 9.16666 13.7946 9.16666 13.3344V6.66772C9.16666 6.20749 8.79356 5.83439 8.33332 5.83439Z" fill="#23262F"/>
<path d="M4.99999 10.8344C4.53975 10.8344 4.16666 11.2075 4.16666 11.6677V13.3344C4.16666 13.7946 4.53975 14.1677 4.99999 14.1677C5.46023 14.1677 5.83332 13.7946 5.83332 13.3344V11.6677C5.83332 11.2075 5.46023 10.8344 4.99999 10.8344Z" fill="#23262F"/>
<path d="M10.8333 8.33439C10.8333 7.87415 11.2064 7.50106 11.6667 7.50106C12.1269 7.50106 12.5 7.87415 12.5 8.33439V13.3344C12.5 13.7946 12.1269 14.1677 11.6667 14.1677C11.2064 14.1677 10.8333 13.7946 10.8333 13.3344V8.33439Z" fill="#23262F"/>
</svg>
