<svg width="20" height="20" viewBox="0 0 20 20" fill="none" xmlns="http://www.w3.org/2000/svg">
<path fill-rule="evenodd" clip-rule="evenodd" d="M9.99999 16.6677C13.6819 16.6677 16.6667 13.683 16.6667 10.0011C16.6667 6.31916 13.6819 3.33439 9.99999 3.33439C6.31809 3.33439 3.33332 6.31916 3.33332 10.0011C3.33332 13.683 6.31809 16.6677 9.99999 16.6677ZM9.99999 18.3344C14.6024 18.3344 18.3333 14.6034 18.3333 10.0011C18.3333 5.39868 14.6024 1.66772 9.99999 1.66772C5.39762 1.66772 1.66666 5.39868 1.66666 10.0011C1.66666 14.6034 5.39762 18.3344 9.99999 18.3344Z" fill="#777E91"/>
<path d="M9.16666 5.83431C9.16666 5.37407 9.53975 5.00098 9.99999 5.00098C10.4602 5.00098 10.8333 5.37407 10.8333 5.83431C12.214 5.83431 13.3333 6.9536 13.3333 8.33431C13.3333 8.79455 12.9602 9.16764 12.5 9.16764C12.0398 9.16764 11.6667 8.79455 11.6667 8.33431C11.6667 7.87407 11.2936 7.50098 10.8333 7.50098H8.95284C8.61069 7.50098 8.33332 7.77834 8.33332 8.12049C8.33332 8.38715 8.50396 8.62389 8.75693 8.70821L11.7701 9.7126C12.7036 10.0238 13.3333 10.8974 13.3333 11.8815C13.3333 13.1441 12.3098 14.1676 11.0471 14.1676H10.8333C10.8333 14.6279 10.4602 15.001 9.99999 15.001C9.53975 15.001 9.16666 14.6279 9.16666 14.1676C7.78594 14.1676 6.66666 13.0484 6.66666 11.6676C6.66666 11.2074 7.03975 10.8343 7.49999 10.8343C7.96023 10.8343 8.33332 11.2074 8.33332 11.6676C8.33332 12.1279 8.70642 12.501 9.16666 12.501H11.0471C11.3893 12.501 11.6667 12.2236 11.6667 11.8815C11.6667 11.6148 11.496 11.3781 11.2431 11.2937L8.22988 10.2894C7.29634 9.97817 6.66666 9.10453 6.66666 8.12049C6.66666 6.85787 7.69021 5.83431 8.95284 5.83431H9.16666Z" fill="#777E91"/>
</svg>
